<svg aria-hidden="true" style="position: absolute; width: 0; height: 0; overflow: hidden;" version="1.1" xmlns="http://www.w3.org/2000/svg" xmlns:xlink="http://www.w3.org/1999/xlink">
<defs>
<symbol id="icon-delghter-1" viewBox="0 0 32 32">
<title>delghter-1</title>
<path d="M0.909 1.818c0.502 0 0.909-0.407 0.909-0.909s-0.407-0.909-0.909-0.909c-0.502 0-0.909 0.407-0.909 0.909s0.407 0.909 0.909 0.909z"></path>
<path d="M0.909 15.273c0.502 0 0.909-0.407 0.909-0.909s-0.407-0.909-0.909-0.909c-0.502 0-0.909 0.407-0.909 0.909s0.407 0.909 0.909 0.909z"></path>
<path d="M0.909 8.727c0.502 0 0.909-0.407 0.909-0.909s-0.407-0.909-0.909-0.909c-0.502 0-0.909 0.407-0.909 0.909s0.407 0.909 0.909 0.909z"></path>
<path d="M0.909 21.818c0.502 0 0.909-0.407 0.909-0.909s-0.407-0.909-0.909-0.909c-0.502 0-0.909 0.407-0.909 0.909s0.407 0.909 0.909 0.909z"></path>
<path d="M0.909 28.727c0.502 0 0.909-0.407 0.909-0.909s-0.407-0.909-0.909-0.909c-0.502 0-0.909 0.407-0.909 0.909s0.407 0.909 0.909 0.909z"></path>
<path d="M0.909 5.091c0.502 0 0.909-0.407 0.909-0.909s-0.407-0.909-0.909-0.909c-0.502 0-0.909 0.407-0.909 0.909s0.407 0.909 0.909 0.909z"></path>
<path d="M0.909 18.545c0.502 0 0.909-0.407 0.909-0.909s-0.407-0.909-0.909-0.909c-0.502 0-0.909 0.407-0.909 0.909s0.407 0.909 0.909 0.909z"></path>
<path d="M0.909 12c0.502 0 0.909-0.407 0.909-0.909s-0.407-0.909-0.909-0.909c-0.502 0-0.909 0.407-0.909 0.909s0.407 0.909 0.909 0.909z"></path>
<path d="M0.909 25.091c0.502 0 0.909-0.407 0.909-0.909s-0.407-0.909-0.909-0.909c-0.502 0-0.909 0.407-0.909 0.909s0.407 0.909 0.909 0.909z"></path>
<path d="M0.909 32c0.502 0 0.909-0.407 0.909-0.909s-0.407-0.909-0.909-0.909c-0.502 0-0.909 0.407-0.909 0.909s0.407 0.909 0.909 0.909z"></path>
<path d="M14.364 1.818c0.502 0 0.909-0.407 0.909-0.909s-0.407-0.909-0.909-0.909c-0.502 0-0.909 0.407-0.909 0.909s0.407 0.909 0.909 0.909z"></path>
<path d="M14.364 15.273c0.502 0 0.909-0.407 0.909-0.909s-0.407-0.909-0.909-0.909c-0.502 0-0.909 0.407-0.909 0.909s0.407 0.909 0.909 0.909z"></path>
<path d="M14.364 8.727c0.502 0 0.909-0.407 0.909-0.909s-0.407-0.909-0.909-0.909c-0.502 0-0.909 0.407-0.909 0.909s0.407 0.909 0.909 0.909z"></path>
<path d="M14.364 5.091c0.502 0 0.909-0.407 0.909-0.909s-0.407-0.909-0.909-0.909c-0.502 0-0.909 0.407-0.909 0.909s0.407 0.909 0.909 0.909z"></path>
<path d="M14.364 18.545c0.502 0 0.909-0.407 0.909-0.909s-0.407-0.909-0.909-0.909c-0.502 0-0.909 0.407-0.909 0.909s0.407 0.909 0.909 0.909z"></path>
<path d="M14.364 12c0.502 0 0.909-0.407 0.909-0.909s-0.407-0.909-0.909-0.909c-0.502 0-0.909 0.407-0.909 0.909s0.407 0.909 0.909 0.909z"></path>
<path d="M7.818 1.818c0.502 0 0.909-0.407 0.909-0.909s-0.407-0.909-0.909-0.909c-0.502 0-0.909 0.407-0.909 0.909s0.407 0.909 0.909 0.909z"></path>
<path d="M7.818 15.273c0.502 0 0.909-0.407 0.909-0.909s-0.407-0.909-0.909-0.909c-0.502 0-0.909 0.407-0.909 0.909s0.407 0.909 0.909 0.909z"></path>
<path d="M7.818 8.727c0.502 0 0.909-0.407 0.909-0.909s-0.407-0.909-0.909-0.909c-0.502 0-0.909 0.407-0.909 0.909s0.407 0.909 0.909 0.909z"></path>
<path d="M7.818 21.818c0.502 0 0.909-0.407 0.909-0.909s-0.407-0.909-0.909-0.909c-0.502 0-0.909 0.407-0.909 0.909s0.407 0.909 0.909 0.909z"></path>
<path d="M7.818 5.091c0.502 0 0.909-0.407 0.909-0.909s-0.407-0.909-0.909-0.909c-0.502 0-0.909 0.407-0.909 0.909s0.407 0.909 0.909 0.909z"></path>
<path d="M7.818 18.545c0.502 0 0.909-0.407 0.909-0.909s-0.407-0.909-0.909-0.909c-0.502 0-0.909 0.407-0.909 0.909s0.407 0.909 0.909 0.909z"></path>
<path d="M7.818 12c0.502 0 0.909-0.407 0.909-0.909s-0.407-0.909-0.909-0.909c-0.502 0-0.909 0.407-0.909 0.909s0.407 0.909 0.909 0.909z"></path>
<path d="M7.818 25.091c0.502 0 0.909-0.407 0.909-0.909s-0.407-0.909-0.909-0.909c-0.502 0-0.909 0.407-0.909 0.909s0.407 0.909 0.909 0.909z"></path>
<path d="M20.909 1.818c0.502 0 0.909-0.407 0.909-0.909s-0.407-0.909-0.909-0.909c-0.502 0-0.909 0.407-0.909 0.909s0.407 0.909 0.909 0.909z"></path>
<path d="M20.909 8.727c0.502 0 0.909-0.407 0.909-0.909s-0.407-0.909-0.909-0.909c-0.502 0-0.909 0.407-0.909 0.909s0.407 0.909 0.909 0.909z"></path>
<path d="M20.909 5.091c0.502 0 0.909-0.407 0.909-0.909s-0.407-0.909-0.909-0.909c-0.502 0-0.909 0.407-0.909 0.909s0.407 0.909 0.909 0.909z"></path>
<path d="M20.909 12c0.502 0 0.909-0.407 0.909-0.909s-0.407-0.909-0.909-0.909c-0.502 0-0.909 0.407-0.909 0.909s0.407 0.909 0.909 0.909z"></path>
<path d="M27.818 1.818c0.502 0 0.909-0.407 0.909-0.909s-0.407-0.909-0.909-0.909c-0.502 0-0.909 0.407-0.909 0.909s0.407 0.909 0.909 0.909z"></path>
<path d="M27.818 5.091c0.502 0 0.909-0.407 0.909-0.909s-0.407-0.909-0.909-0.909c-0.502 0-0.909 0.407-0.909 0.909s0.407 0.909 0.909 0.909z"></path>
<path d="M4.182 1.818c0.502 0 0.909-0.407 0.909-0.909s-0.407-0.909-0.909-0.909c-0.502 0-0.909 0.407-0.909 0.909s0.407 0.909 0.909 0.909z"></path>
<path d="M4.182 15.273c0.502 0 0.909-0.407 0.909-0.909s-0.407-0.909-0.909-0.909c-0.502 0-0.909 0.407-0.909 0.909s0.407 0.909 0.909 0.909z"></path>
<path d="M4.182 8.727c0.502 0 0.909-0.407 0.909-0.909s-0.407-0.909-0.909-0.909c-0.502 0-0.909 0.407-0.909 0.909s0.407 0.909 0.909 0.909z"></path>
<path d="M4.182 21.818c0.502 0 0.909-0.407 0.909-0.909s-0.407-0.909-0.909-0.909c-0.502 0-0.909 0.407-0.909 0.909s0.407 0.909 0.909 0.909z"></path>
<path d="M4.182 28.727c0.502 0 0.909-0.407 0.909-0.909s-0.407-0.909-0.909-0.909c-0.502 0-0.909 0.407-0.909 0.909s0.407 0.909 0.909 0.909z"></path>
<path d="M4.182 5.091c0.502 0 0.909-0.407 0.909-0.909s-0.407-0.909-0.909-0.909c-0.502 0-0.909 0.407-0.909 0.909s0.407 0.909 0.909 0.909z"></path>
<path d="M4.182 18.545c0.502 0 0.909-0.407 0.909-0.909s-0.407-0.909-0.909-0.909c-0.502 0-0.909 0.407-0.909 0.909s0.407 0.909 0.909 0.909z"></path>
<path d="M4.182 12c0.502 0 0.909-0.407 0.909-0.909s-0.407-0.909-0.909-0.909c-0.502 0-0.909 0.407-0.909 0.909s0.407 0.909 0.909 0.909z"></path>
<path d="M4.182 25.091c0.502 0 0.909-0.407 0.909-0.909s-0.407-0.909-0.909-0.909c-0.502 0-0.909 0.407-0.909 0.909s0.407 0.909 0.909 0.909z"></path>
<path d="M17.636 1.818c0.502 0 0.909-0.407 0.909-0.909s-0.407-0.909-0.909-0.909c-0.502 0-0.909 0.407-0.909 0.909s0.407 0.909 0.909 0.909z"></path>
<path d="M17.636 15.273c0.502 0 0.909-0.407 0.909-0.909s-0.407-0.909-0.909-0.909c-0.502 0-0.909 0.407-0.909 0.909s0.407 0.909 0.909 0.909z"></path>
<path d="M17.636 8.727c0.502 0 0.909-0.407 0.909-0.909s-0.407-0.909-0.909-0.909c-0.502 0-0.909 0.407-0.909 0.909s0.407 0.909 0.909 0.909z"></path>
<path d="M17.636 5.091c0.502 0 0.909-0.407 0.909-0.909s-0.407-0.909-0.909-0.909c-0.502 0-0.909 0.407-0.909 0.909s0.407 0.909 0.909 0.909z"></path>
<path d="M17.636 12c0.502 0 0.909-0.407 0.909-0.909s-0.407-0.909-0.909-0.909c-0.502 0-0.909 0.407-0.909 0.909s0.407 0.909 0.909 0.909z"></path>
<path d="M11.091 1.818c0.502 0 0.909-0.407 0.909-0.909s-0.407-0.909-0.909-0.909c-0.502 0-0.909 0.407-0.909 0.909s0.407 0.909 0.909 0.909z"></path>
<path d="M11.091 15.273c0.502 0 0.909-0.407 0.909-0.909s-0.407-0.909-0.909-0.909c-0.502 0-0.909 0.407-0.909 0.909s0.407 0.909 0.909 0.909z"></path>
<path d="M11.091 8.727c0.502 0 0.909-0.407 0.909-0.909s-0.407-0.909-0.909-0.909c-0.502 0-0.909 0.407-0.909 0.909s0.407 0.909 0.909 0.909z"></path>
<path d="M11.091 21.818c0.502 0 0.909-0.407 0.909-0.909s-0.407-0.909-0.909-0.909c-0.502 0-0.909 0.407-0.909 0.909s0.407 0.909 0.909 0.909z"></path>
<path d="M11.091 5.091c0.502 0 0.909-0.407 0.909-0.909s-0.407-0.909-0.909-0.909c-0.502 0-0.909 0.407-0.909 0.909s0.407 0.909 0.909 0.909z"></path>
<path d="M11.091 18.545c0.502 0 0.909-0.407 0.909-0.909s-0.407-0.909-0.909-0.909c-0.502 0-0.909 0.407-0.909 0.909s0.407 0.909 0.909 0.909z"></path>
<path d="M11.091 12c0.502 0 0.909-0.407 0.909-0.909s-0.407-0.909-0.909-0.909c-0.502 0-0.909 0.407-0.909 0.909s0.407 0.909 0.909 0.909z"></path>
<path d="M24.182 1.818c0.502 0 0.909-0.407 0.909-0.909s-0.407-0.909-0.909-0.909c-0.502 0-0.909 0.407-0.909 0.909s0.407 0.909 0.909 0.909z"></path>
<path d="M24.182 8.727c0.502 0 0.909-0.407 0.909-0.909s-0.407-0.909-0.909-0.909c-0.502 0-0.909 0.407-0.909 0.909s0.407 0.909 0.909 0.909z"></path>
<path d="M24.182 5.091c0.502 0 0.909-0.407 0.909-0.909s-0.407-0.909-0.909-0.909c-0.502 0-0.909 0.407-0.909 0.909s0.407 0.909 0.909 0.909z"></path>
<path d="M31.091 1.818c0.502 0 0.909-0.407 0.909-0.909s-0.407-0.909-0.909-0.909c-0.502 0-0.909 0.407-0.909 0.909s0.407 0.909 0.909 0.909z"></path>
</symbol>
<symbol id="icon-delighter-3" viewBox="0 0 32 32">
<title>delighter-3</title>
<path d="M0.974 30.052c0.538 0 0.974 0.436 0.974 0.974s-0.436 0.974-0.974 0.974c-0.538 0-0.974-0.436-0.974-0.974s0.436-0.974 0.974-0.974z"></path>
<path d="M0.974 16.696c0.538 0 0.974 0.436 0.974 0.974s-0.436 0.974-0.974 0.974c-0.538 0-0.974-0.436-0.974-0.974s0.436-0.974 0.974-0.974z"></path>
<path d="M0.974 23.374c0.538 0 0.974 0.436 0.974 0.974s-0.436 0.974-0.974 0.974c-0.538 0-0.974-0.436-0.974-0.974s0.436-0.974 0.974-0.974z"></path>
<path d="M0.974 10.017c0.538 0 0.974 0.436 0.974 0.974s-0.436 0.974-0.974 0.974c-0.538 0-0.974-0.436-0.974-0.974s0.436-0.974 0.974-0.974z"></path>
<path d="M0.974 3.339c0.538 0 0.974 0.436 0.974 0.974s-0.436 0.974-0.974 0.974c-0.538 0-0.974-0.436-0.974-0.974s0.436-0.974 0.974-0.974z"></path>
<path d="M0.974 26.713c0.538 0 0.974 0.436 0.974 0.974s-0.436 0.974-0.974 0.974c-0.538 0-0.974-0.436-0.974-0.974s0.436-0.974 0.974-0.974z"></path>
<path d="M0.974 13.357c0.538 0 0.974 0.436 0.974 0.974s-0.436 0.974-0.974 0.974c-0.538 0-0.974-0.436-0.974-0.974s0.436-0.974 0.974-0.974z"></path>
<path d="M0.974 20.035c0.538 0 0.974 0.436 0.974 0.974s-0.436 0.974-0.974 0.974c-0.538 0-0.974-0.436-0.974-0.974s0.436-0.974 0.974-0.974z"></path>
<path d="M0.974 6.678c0.538 0 0.974 0.436 0.974 0.974s-0.436 0.974-0.974 0.974c-0.538 0-0.974-0.436-0.974-0.974s0.436-0.974 0.974-0.974z"></path>
<path d="M0.974 0c0.538 0 0.974 0.436 0.974 0.974s-0.436 0.974-0.974 0.974c-0.538 0-0.974-0.436-0.974-0.974s0.436-0.974 0.974-0.974z"></path>
<path d="M14.33 30.052c0.538 0 0.974 0.436 0.974 0.974s-0.436 0.974-0.974 0.974c-0.538 0-0.974-0.436-0.974-0.974s0.436-0.974 0.974-0.974z"></path>
<path d="M14.33 16.696c0.538 0 0.974 0.436 0.974 0.974s-0.436 0.974-0.974 0.974c-0.538 0-0.974-0.436-0.974-0.974s0.436-0.974 0.974-0.974z"></path>
<path d="M14.33 23.374c0.538 0 0.974 0.436 0.974 0.974s-0.436 0.974-0.974 0.974c-0.538 0-0.974-0.436-0.974-0.974s0.436-0.974 0.974-0.974z"></path>
<path d="M14.33 26.713c0.538 0 0.974 0.436 0.974 0.974s-0.436 0.974-0.974 0.974c-0.538 0-0.974-0.436-0.974-0.974s0.436-0.974 0.974-0.974z"></path>
<path d="M14.33 13.357c0.538 0 0.974 0.436 0.974 0.974s-0.436 0.974-0.974 0.974c-0.538 0-0.974-0.436-0.974-0.974s0.436-0.974 0.974-0.974z"></path>
<path d="M14.33 20.035c0.538 0 0.974 0.436 0.974 0.974s-0.436 0.974-0.974 0.974c-0.538 0-0.974-0.436-0.974-0.974s0.436-0.974 0.974-0.974z"></path>
<path d="M7.652 30.052c0.538 0 0.974 0.436 0.974 0.974s-0.436 0.974-0.974 0.974c-0.538 0-0.974-0.436-0.974-0.974s0.436-0.974 0.974-0.974z"></path>
<path d="M7.652 16.696c0.538 0 0.974 0.436 0.974 0.974s-0.436 0.974-0.974 0.974c-0.538 0-0.974-0.436-0.974-0.974s0.436-0.974 0.974-0.974z"></path>
<path d="M7.652 23.374c0.538 0 0.974 0.436 0.974 0.974s-0.436 0.974-0.974 0.974c-0.538 0-0.974-0.436-0.974-0.974s0.436-0.974 0.974-0.974z"></path>
<path d="M7.652 10.017c0.538 0 0.974 0.436 0.974 0.974s-0.436 0.974-0.974 0.974c-0.538 0-0.974-0.436-0.974-0.974s0.436-0.974 0.974-0.974z"></path>
<path d="M7.652 26.713c0.538 0 0.974 0.436 0.974 0.974s-0.436 0.974-0.974 0.974c-0.538 0-0.974-0.436-0.974-0.974s0.436-0.974 0.974-0.974z"></path>
<path d="M7.652 13.357c0.538 0 0.974 0.436 0.974 0.974s-0.436 0.974-0.974 0.974c-0.538 0-0.974-0.436-0.974-0.974s0.436-0.974 0.974-0.974z"></path>
<path d="M7.652 20.035c0.538 0 0.974 0.436 0.974 0.974s-0.436 0.974-0.974 0.974c-0.538 0-0.974-0.436-0.974-0.974s0.436-0.974 0.974-0.974z"></path>
<path d="M7.652 6.678c0.538 0 0.974 0.436 0.974 0.974s-0.436 0.974-0.974 0.974c-0.538 0-0.974-0.436-0.974-0.974s0.436-0.974 0.974-0.974z"></path>
<path d="M21.009 30.052c0.538 0 0.974 0.436 0.974 0.974s-0.436 0.974-0.974 0.974c-0.538 0-0.974-0.436-0.974-0.974s0.436-0.974 0.974-0.974z"></path>
<path d="M21.009 23.374c0.538 0 0.974 0.436 0.974 0.974s-0.436 0.974-0.974 0.974c-0.538 0-0.974-0.436-0.974-0.974s0.436-0.974 0.974-0.974z"></path>
<path d="M21.009 26.713c0.538 0 0.974 0.436 0.974 0.974s-0.436 0.974-0.974 0.974c-0.538 0-0.974-0.436-0.974-0.974s0.436-0.974 0.974-0.974z"></path>
<path d="M21.009 20.035c0.538 0 0.974 0.436 0.974 0.974s-0.436 0.974-0.974 0.974c-0.538 0-0.974-0.436-0.974-0.974s0.436-0.974 0.974-0.974z"></path>
<path d="M27.687 30.052c0.538 0 0.974 0.436 0.974 0.974s-0.436 0.974-0.974 0.974c-0.538 0-0.974-0.436-0.974-0.974s0.436-0.974 0.974-0.974z"></path>
<path d="M27.687 26.713c0.538 0 0.974 0.436 0.974 0.974s-0.436 0.974-0.974 0.974c-0.538 0-0.974-0.436-0.974-0.974s0.436-0.974 0.974-0.974z"></path>
<path d="M4.313 30.052c0.538 0 0.974 0.436 0.974 0.974s-0.436 0.974-0.974 0.974c-0.538 0-0.974-0.436-0.974-0.974s0.436-0.974 0.974-0.974z"></path>
<path d="M4.313 16.696c0.538 0 0.974 0.436 0.974 0.974s-0.436 0.974-0.974 0.974c-0.538 0-0.974-0.436-0.974-0.974s0.436-0.974 0.974-0.974z"></path>
<path d="M4.313 23.374c0.538 0 0.974 0.436 0.974 0.974s-0.436 0.974-0.974 0.974c-0.538 0-0.974-0.436-0.974-0.974s0.436-0.974 0.974-0.974z"></path>
<path d="M4.313 10.017c0.538 0 0.974 0.436 0.974 0.974s-0.436 0.974-0.974 0.974c-0.538 0-0.974-0.436-0.974-0.974s0.436-0.974 0.974-0.974z"></path>
<path d="M4.313 3.339c0.538 0 0.974 0.436 0.974 0.974s-0.436 0.974-0.974 0.974c-0.538 0-0.974-0.436-0.974-0.974s0.436-0.974 0.974-0.974z"></path>
<path d="M4.313 26.713c0.538 0 0.974 0.436 0.974 0.974s-0.436 0.974-0.974 0.974c-0.538 0-0.974-0.436-0.974-0.974s0.436-0.974 0.974-0.974z"></path>
<path d="M4.313 13.357c0.538 0 0.974 0.436 0.974 0.974s-0.436 0.974-0.974 0.974c-0.538 0-0.974-0.436-0.974-0.974s0.436-0.974 0.974-0.974z"></path>
<path d="M4.313 20.035c0.538 0 0.974 0.436 0.974 0.974s-0.436 0.974-0.974 0.974c-0.538 0-0.974-0.436-0.974-0.974s0.436-0.974 0.974-0.974z"></path>
<path d="M4.313 6.678c0.538 0 0.974 0.436 0.974 0.974s-0.436 0.974-0.974 0.974c-0.538 0-0.974-0.436-0.974-0.974s0.436-0.974 0.974-0.974z"></path>
<path d="M17.67 30.052c0.538 0 0.974 0.436 0.974 0.974s-0.436 0.974-0.974 0.974c-0.538 0-0.974-0.436-0.974-0.974s0.436-0.974 0.974-0.974z"></path>
<path d="M17.67 16.696c0.538 0 0.974 0.436 0.974 0.974s-0.436 0.974-0.974 0.974c-0.538 0-0.974-0.436-0.974-0.974s0.436-0.974 0.974-0.974z"></path>
<path d="M17.67 23.374c0.538 0 0.974 0.436 0.974 0.974s-0.436 0.974-0.974 0.974c-0.538 0-0.974-0.436-0.974-0.974s0.436-0.974 0.974-0.974z"></path>
<path d="M17.67 26.713c0.538 0 0.974 0.436 0.974 0.974s-0.436 0.974-0.974 0.974c-0.538 0-0.974-0.436-0.974-0.974s0.436-0.974 0.974-0.974z"></path>
<path d="M17.67 20.035c0.538 0 0.974 0.436 0.974 0.974s-0.436 0.974-0.974 0.974c-0.538 0-0.974-0.436-0.974-0.974s0.436-0.974 0.974-0.974z"></path>
<path d="M10.991 30.052c0.538 0 0.974 0.436 0.974 0.974s-0.436 0.974-0.974 0.974c-0.538 0-0.974-0.436-0.974-0.974s0.436-0.974 0.974-0.974z"></path>
<path d="M10.991 16.696c0.538 0 0.974 0.436 0.974 0.974s-0.436 0.974-0.974 0.974c-0.538 0-0.974-0.436-0.974-0.974s0.436-0.974 0.974-0.974z"></path>
<path d="M10.991 23.374c0.538 0 0.974 0.436 0.974 0.974s-0.436 0.974-0.974 0.974c-0.538 0-0.974-0.436-0.974-0.974s0.436-0.974 0.974-0.974z"></path>
<path d="M10.991 10.017c0.538 0 0.974 0.436 0.974 0.974s-0.436 0.974-0.974 0.974c-0.538 0-0.974-0.436-0.974-0.974s0.436-0.974 0.974-0.974z"></path>
<path d="M10.991 26.713c0.538 0 0.974 0.436 0.974 0.974s-0.436 0.974-0.974 0.974c-0.538 0-0.974-0.436-0.974-0.974s0.436-0.974 0.974-0.974z"></path>
<path d="M10.991 13.357c0.538 0 0.974 0.436 0.974 0.974s-0.436 0.974-0.974 0.974c-0.538 0-0.974-0.436-0.974-0.974s0.436-0.974 0.974-0.974z"></path>
<path d="M10.991 20.035c0.538 0 0.974 0.436 0.974 0.974s-0.436 0.974-0.974 0.974c-0.538 0-0.974-0.436-0.974-0.974s0.436-0.974 0.974-0.974z"></path>
<path d="M24.348 30.052c0.538 0 0.974 0.436 0.974 0.974s-0.436 0.974-0.974 0.974c-0.538 0-0.974-0.436-0.974-0.974s0.436-0.974 0.974-0.974z"></path>
<path d="M24.348 23.374c0.538 0 0.974 0.436 0.974 0.974s-0.436 0.974-0.974 0.974c-0.538 0-0.974-0.436-0.974-0.974s0.436-0.974 0.974-0.974z"></path>
<path d="M24.348 26.713c0.538 0 0.974 0.436 0.974 0.974s-0.436 0.974-0.974 0.974c-0.538 0-0.974-0.436-0.974-0.974s0.436-0.974 0.974-0.974z"></path>
<path d="M31.026 30.052c0.538 0 0.974 0.436 0.974 0.974s-0.436 0.974-0.974 0.974c-0.538 0-0.974-0.436-0.974-0.974s0.436-0.974 0.974-0.974z"></path>
</symbol>
<symbol id="icon-delighter-4" viewBox="0 0 32 32">
<title>delighter-4</title>
<path d="M0.787 1.574c0.435 0 0.787-0.352 0.787-0.787s-0.352-0.787-0.787-0.787c-0.435 0-0.787 0.352-0.787 0.787s0.352 0.787 0.787 0.787z"></path>
<path d="M0.787 15.213c0.435 0 0.787-0.352 0.787-0.787s-0.352-0.787-0.787-0.787c-0.435 0-0.787 0.352-0.787 0.787s0.352 0.787 0.787 0.787z"></path>
<path d="M0.787 8.393c0.435 0 0.787-0.352 0.787-0.787s-0.352-0.787-0.787-0.787c-0.435 0-0.787 0.352-0.787 0.787s0.352 0.787 0.787 0.787z"></path>
<path d="M0.787 21.508c0.435 0 0.787-0.352 0.787-0.787s-0.352-0.787-0.787-0.787c-0.435 0-0.787 0.352-0.787 0.787s0.352 0.787 0.787 0.787z"></path>
<path d="M0.787 28.852c0.435 0 0.787-0.352 0.787-0.787s-0.352-0.787-0.787-0.787c-0.435 0-0.787 0.352-0.787 0.787s0.352 0.787 0.787 0.787z"></path>
<path d="M0.787 4.721c0.435 0 0.787-0.352 0.787-0.787s-0.352-0.787-0.787-0.787c-0.435 0-0.787 0.352-0.787 0.787s0.352 0.787 0.787 0.787z"></path>
<path d="M0.787 18.361c0.435 0 0.787-0.352 0.787-0.787s-0.352-0.787-0.787-0.787c-0.435 0-0.787 0.352-0.787 0.787s0.352 0.787 0.787 0.787z"></path>
<path d="M0.787 12.066c0.435 0 0.787-0.352 0.787-0.787s-0.352-0.787-0.787-0.787c-0.435 0-0.787 0.352-0.787 0.787s0.352 0.787 0.787 0.787z"></path>
<path d="M0.787 25.18c0.435 0 0.787-0.352 0.787-0.787s-0.352-0.787-0.787-0.787c-0.435 0-0.787 0.352-0.787 0.787s0.352 0.787 0.787 0.787z"></path>
<path d="M0.787 32c0.435 0 0.787-0.352 0.787-0.787s-0.352-0.787-0.787-0.787c-0.435 0-0.787 0.352-0.787 0.787s0.352 0.787 0.787 0.787z"></path>
<path d="M14.426 1.574c0.435 0 0.787-0.352 0.787-0.787s-0.352-0.787-0.787-0.787c-0.435 0-0.787 0.352-0.787 0.787s0.352 0.787 0.787 0.787z"></path>
<path d="M14.426 15.213c0.435 0 0.787-0.352 0.787-0.787s-0.352-0.787-0.787-0.787c-0.435 0-0.787 0.352-0.787 0.787s0.352 0.787 0.787 0.787z"></path>
<path d="M14.426 8.393c0.435 0 0.787-0.352 0.787-0.787s-0.352-0.787-0.787-0.787c-0.435 0-0.787 0.352-0.787 0.787s0.352 0.787 0.787 0.787z"></path>
<path d="M14.426 4.721c0.435 0 0.787-0.352 0.787-0.787s-0.352-0.787-0.787-0.787c-0.435 0-0.787 0.352-0.787 0.787s0.352 0.787 0.787 0.787z"></path>
<path d="M14.426 18.361c0.435 0 0.787-0.352 0.787-0.787s-0.352-0.787-0.787-0.787c-0.435 0-0.787 0.352-0.787 0.787s0.352 0.787 0.787 0.787z"></path>
<path d="M14.426 12.066c0.435 0 0.787-0.352 0.787-0.787s-0.352-0.787-0.787-0.787c-0.435 0-0.787 0.352-0.787 0.787s0.352 0.787 0.787 0.787z"></path>
<path d="M7.607 1.574c0.435 0 0.787-0.352 0.787-0.787s-0.352-0.787-0.787-0.787c-0.435 0-0.787 0.352-0.787 0.787s0.352 0.787 0.787 0.787z"></path>
<path d="M7.607 15.213c0.435 0 0.787-0.352 0.787-0.787s-0.352-0.787-0.787-0.787c-0.435 0-0.787 0.352-0.787 0.787s0.352 0.787 0.787 0.787z"></path>
<path d="M7.607 8.393c0.435 0 0.787-0.352 0.787-0.787s-0.352-0.787-0.787-0.787c-0.435 0-0.787 0.352-0.787 0.787s0.352 0.787 0.787 0.787z"></path>
<path d="M7.607 21.508c0.435 0 0.787-0.352 0.787-0.787s-0.352-0.787-0.787-0.787c-0.435 0-0.787 0.352-0.787 0.787s0.352 0.787 0.787 0.787z"></path>
<path d="M7.607 4.721c0.435 0 0.787-0.352 0.787-0.787s-0.352-0.787-0.787-0.787c-0.435 0-0.787 0.352-0.787 0.787s0.352 0.787 0.787 0.787z"></path>
<path d="M7.607 18.361c0.435 0 0.787-0.352 0.787-0.787s-0.352-0.787-0.787-0.787c-0.435 0-0.787 0.352-0.787 0.787s0.352 0.787 0.787 0.787z"></path>
<path d="M7.607 12.066c0.435 0 0.787-0.352 0.787-0.787s-0.352-0.787-0.787-0.787c-0.435 0-0.787 0.352-0.787 0.787s0.352 0.787 0.787 0.787z"></path>
<path d="M7.607 25.18c0.435 0 0.787-0.352 0.787-0.787s-0.352-0.787-0.787-0.787c-0.435 0-0.787 0.352-0.787 0.787s0.352 0.787 0.787 0.787z"></path>
<path d="M20.721 1.574c0.435 0 0.787-0.352 0.787-0.787s-0.352-0.787-0.787-0.787c-0.435 0-0.787 0.352-0.787 0.787s0.352 0.787 0.787 0.787z"></path>
<path d="M20.721 8.393c0.435 0 0.787-0.352 0.787-0.787s-0.352-0.787-0.787-0.787c-0.435 0-0.787 0.352-0.787 0.787s0.352 0.787 0.787 0.787z"></path>
<path d="M20.721 4.721c0.435 0 0.787-0.352 0.787-0.787s-0.352-0.787-0.787-0.787c-0.435 0-0.787 0.352-0.787 0.787s0.352 0.787 0.787 0.787z"></path>
<path d="M20.721 12.066c0.435 0 0.787-0.352 0.787-0.787s-0.352-0.787-0.787-0.787c-0.435 0-0.787 0.352-0.787 0.787s0.352 0.787 0.787 0.787z"></path>
<path d="M28.066 1.574c0.435 0 0.787-0.352 0.787-0.787s-0.352-0.787-0.787-0.787c-0.435 0-0.787 0.352-0.787 0.787s0.352 0.787 0.787 0.787z"></path>
<path d="M28.066 4.721c0.435 0 0.787-0.352 0.787-0.787s-0.352-0.787-0.787-0.787c-0.435 0-0.787 0.352-0.787 0.787s0.352 0.787 0.787 0.787z"></path>
<path d="M3.934 1.574c0.435 0 0.787-0.352 0.787-0.787s-0.352-0.787-0.787-0.787c-0.435 0-0.787 0.352-0.787 0.787s0.352 0.787 0.787 0.787z"></path>
<path d="M3.934 15.213c0.435 0 0.787-0.352 0.787-0.787s-0.352-0.787-0.787-0.787c-0.435 0-0.787 0.352-0.787 0.787s0.352 0.787 0.787 0.787z"></path>
<path d="M3.934 8.393c0.435 0 0.787-0.352 0.787-0.787s-0.352-0.787-0.787-0.787c-0.435 0-0.787 0.352-0.787 0.787s0.352 0.787 0.787 0.787z"></path>
<path d="M3.934 21.508c0.435 0 0.787-0.352 0.787-0.787s-0.352-0.787-0.787-0.787c-0.435 0-0.787 0.352-0.787 0.787s0.352 0.787 0.787 0.787z"></path>
<path d="M3.934 28.852c0.435 0 0.787-0.352 0.787-0.787s-0.352-0.787-0.787-0.787c-0.435 0-0.787 0.352-0.787 0.787s0.352 0.787 0.787 0.787z"></path>
<path d="M3.934 4.721c0.435 0 0.787-0.352 0.787-0.787s-0.352-0.787-0.787-0.787c-0.435 0-0.787 0.352-0.787 0.787s0.352 0.787 0.787 0.787z"></path>
<path d="M3.934 18.361c0.435 0 0.787-0.352 0.787-0.787s-0.352-0.787-0.787-0.787c-0.435 0-0.787 0.352-0.787 0.787s0.352 0.787 0.787 0.787z"></path>
<path d="M3.934 12.066c0.435 0 0.787-0.352 0.787-0.787s-0.352-0.787-0.787-0.787c-0.435 0-0.787 0.352-0.787 0.787s0.352 0.787 0.787 0.787z"></path>
<path d="M3.934 25.18c0.435 0 0.787-0.352 0.787-0.787s-0.352-0.787-0.787-0.787c-0.435 0-0.787 0.352-0.787 0.787s0.352 0.787 0.787 0.787z"></path>
<path d="M17.574 1.574c0.435 0 0.787-0.352 0.787-0.787s-0.352-0.787-0.787-0.787c-0.435 0-0.787 0.352-0.787 0.787s0.352 0.787 0.787 0.787z"></path>
<path d="M17.574 15.213c0.435 0 0.787-0.352 0.787-0.787s-0.352-0.787-0.787-0.787c-0.435 0-0.787 0.352-0.787 0.787s0.352 0.787 0.787 0.787z"></path>
<path d="M17.574 8.393c0.435 0 0.787-0.352 0.787-0.787s-0.352-0.787-0.787-0.787c-0.435 0-0.787 0.352-0.787 0.787s0.352 0.787 0.787 0.787z"></path>
<path d="M17.574 4.721c0.435 0 0.787-0.352 0.787-0.787s-0.352-0.787-0.787-0.787c-0.435 0-0.787 0.352-0.787 0.787s0.352 0.787 0.787 0.787z"></path>
<path d="M17.574 12.066c0.435 0 0.787-0.352 0.787-0.787s-0.352-0.787-0.787-0.787c-0.435 0-0.787 0.352-0.787 0.787s0.352 0.787 0.787 0.787z"></path>
<path d="M11.279 1.574c0.435 0 0.787-0.352 0.787-0.787s-0.352-0.787-0.787-0.787c-0.435 0-0.787 0.352-0.787 0.787s0.352 0.787 0.787 0.787z"></path>
<path d="M11.279 15.213c0.435 0 0.787-0.352 0.787-0.787s-0.352-0.787-0.787-0.787c-0.435 0-0.787 0.352-0.787 0.787s0.352 0.787 0.787 0.787z"></path>
<path d="M11.279 8.393c0.435 0 0.787-0.352 0.787-0.787s-0.352-0.787-0.787-0.787c-0.435 0-0.787 0.352-0.787 0.787s0.352 0.787 0.787 0.787z"></path>
<path d="M11.279 21.508c0.435 0 0.787-0.352 0.787-0.787s-0.352-0.787-0.787-0.787c-0.435 0-0.787 0.352-0.787 0.787s0.352 0.787 0.787 0.787z"></path>
<path d="M11.279 4.721c0.435 0 0.787-0.352 0.787-0.787s-0.352-0.787-0.787-0.787c-0.435 0-0.787 0.352-0.787 0.787s0.352 0.787 0.787 0.787z"></path>
<path d="M11.279 18.361c0.435 0 0.787-0.352 0.787-0.787s-0.352-0.787-0.787-0.787c-0.435 0-0.787 0.352-0.787 0.787s0.352 0.787 0.787 0.787z"></path>
<path d="M11.279 12.066c0.435 0 0.787-0.352 0.787-0.787s-0.352-0.787-0.787-0.787c-0.435 0-0.787 0.352-0.787 0.787s0.352 0.787 0.787 0.787z"></path>
<path d="M24.393 1.574c0.435 0 0.787-0.352 0.787-0.787s-0.352-0.787-0.787-0.787c-0.435 0-0.787 0.352-0.787 0.787s0.352 0.787 0.787 0.787z"></path>
<path d="M24.393 8.393c0.435 0 0.787-0.352 0.787-0.787s-0.352-0.787-0.787-0.787c-0.435 0-0.787 0.352-0.787 0.787s0.352 0.787 0.787 0.787z"></path>
<path d="M24.393 4.721c0.435 0 0.787-0.352 0.787-0.787s-0.352-0.787-0.787-0.787c-0.435 0-0.787 0.352-0.787 0.787s0.352 0.787 0.787 0.787z"></path>
<path d="M31.213 1.574c0.435 0 0.787-0.352 0.787-0.787s-0.352-0.787-0.787-0.787c-0.435 0-0.787 0.352-0.787 0.787s0.352 0.787 0.787 0.787z"></path>
</symbol>
<symbol id="icon-arrow-left" viewBox="0 0 32 32">
<title>arrow-left</title>
<path fill="#fff" style="fill: var(--color1, #fff)" opacity="0.9" d="M16 18.319c4.482 0 8.116-3.634 8.116-8.116s-3.634-8.116-8.116-8.116c-4.482 0-8.116 3.634-8.116 8.116s3.634 8.116 8.116 8.116z"></path>
<path fill="#00b3ef" style="fill: var(--color2, #00b3ef)" d="M19.478 10.203c0-0.16-0.13-0.29-0.29-0.29h-5.557l1.414-1.414c0.113-0.113 0.113-0.297 0-0.41s-0.297-0.113-0.41 0l-1.786 1.786c-0.181 0.181-0.181 0.475 0 0.656l1.786 1.786c0.113 0.113 0.297 0.113 0.41 0s0.113-0.297 0-0.41l-1.414-1.414h5.557c0.16 0 0.29-0.13 0.29-0.29z"></path>
</symbol>
<symbol id="icon-arrow-right" viewBox="0 0 32 32">
<title>arrow-right</title>
<path fill="#fff" style="fill: var(--color1, #fff)" opacity="0.9" d="M16 18.319c-4.482 0-8.116-3.634-8.116-8.116s3.634-8.116 8.116-8.116c4.482 0 8.116 3.634 8.116 8.116s-3.634 8.116-8.116 8.116z"></path>
<path fill="#00b3ef" style="fill: var(--color2, #00b3ef)" d="M12.522 10.203c0-0.16 0.13-0.29 0.29-0.29h5.557l-1.414-1.414c-0.113-0.113-0.113-0.297 0-0.41s0.297-0.113 0.41 0l1.786 1.786c0.181 0.181 0.181 0.475 0 0.656l-1.786 1.786c-0.113 0.113-0.297 0.113-0.41 0s-0.113-0.297 0-0.41l1.414-1.414h-5.557c-0.16 0-0.29-0.13-0.29-0.29z"></path>
</symbol>
<symbol id="icon-arrow-down" viewBox="0 0 32 32">
<title>arrow-down</title>
<path d="M28.267 6.667l-12.267 11.604-12.267-11.604-3.733 3.532 16 15.135 16-15.135-3.733-3.532z"></path>
</symbol>
<symbol id="icon-facebook" viewBox="0 0 32 32">
<title>facebook</title>
<path fill="#909299" style="fill: var(--color3, #909299)" d="M12.279 32v-14.313h-4.812v-5.688h4.812v-4.5c0-2.375 0.667-4.219 2-5.531s3.104-1.969 5.313-1.969c1.792 0 3.25 0.083 4.375 0.25v5.063h-3c-1.125 0-1.896 0.25-2.313 0.75-0.333 0.417-0.5 1.083-0.5 2v3.938h5.313l-0.75 5.688h-4.563v14.313h-5.875z"></path>
</symbol>
<symbol id="icon-instagram" viewBox="0 0 32 32">
<title>instagram</title>
<path fill="#909299" style="fill: var(--color3, #909299)" d="M6.696 30h-6.228v-20.022h6.228v20.022zM3.616 7.232c-0.982 0-1.83-0.357-2.545-1.071s-1.071-1.563-1.071-2.545c0-0.982 0.357-1.83 1.071-2.545s1.563-1.071 2.545-1.071c0.982 0 1.83 0.357 2.545 1.071s1.071 1.563 1.071 2.545c0 0.982-0.357 1.83-1.071 2.545s-1.563 1.071-2.545 1.071zM30 30h-6.228v-9.777c0-1.607-0.134-2.768-0.402-3.482-0.491-1.205-1.451-1.808-2.88-1.808s-2.433 0.536-3.013 1.607c-0.446 0.804-0.67 1.987-0.67 3.549v9.911h-6.161v-20.022h5.96v2.746h0.067c0.446-0.893 1.161-1.629 2.143-2.21 1.071-0.714 2.321-1.071 3.75-1.071 2.902 0 4.933 0.915 6.094 2.746 0.893 1.473 1.339 3.75 1.339 6.83v10.982z"></path>
</symbol>
<symbol id="icon-slider-dot" viewBox="0 0 32 32">
<title>slider-dot</title>
<path fill="#bababa" style="fill: var(--color4, #bababa)" d="M16 32c8.837 0 16-7.163 16-16s-7.163-16-16-16c-8.837 0-16 7.163-16 16s7.163 16 16 16z"></path>
</symbol>
<symbol id="icon-twitter" viewBox="0 0 32 32">
<title>twitter</title>
<path fill="#909299" style="fill: var(--color3, #909299)" d="M28.687 8.633c0.042 0.167 0.063 0.438 0.063 0.813 0 3-0.729 5.896-2.188 8.687-1.5 2.958-3.604 5.313-6.312 7.062-2.958 1.958-6.354 2.938-10.187 2.938-3.667 0-7.021-0.979-10.063-2.938 0.458 0.042 0.979 0.063 1.563 0.063 3.042 0 5.771-0.937 8.187-2.812-1.458 0-2.74-0.427-3.844-1.281s-1.865-1.927-2.281-3.219c0.417 0.042 0.813 0.063 1.188 0.063 0.583 0 1.167-0.063 1.75-0.188-1.5-0.333-2.75-1.104-3.75-2.313s-1.5-2.583-1.5-4.125v-0.125c0.917 0.542 1.896 0.833 2.938 0.875-0.875-0.625-1.583-1.417-2.125-2.375s-0.813-2.010-0.813-3.156c0-1.146 0.313-2.24 0.938-3.281 1.625 2.042 3.615 3.667 5.969 4.875s4.865 1.875 7.531 2c-0.083-0.5-0.125-1-0.125-1.5 0-1.167 0.292-2.26 0.875-3.281s1.375-1.823 2.375-2.406c1-0.583 2.083-0.875 3.25-0.875 0.958 0 1.844 0.188 2.656 0.563s1.531 0.875 2.156 1.5c1.5-0.292 2.896-0.813 4.188-1.563-0.5 1.542-1.458 2.75-2.875 3.625 1.25-0.167 2.5-0.521 3.75-1.063-0.917 1.333-2.021 2.479-3.313 3.438z"></path>
</symbol>
</defs>
</svg>
